<?xml version="1.0" encoding="UTF-8" standalone="no"?>
<svg width="37px" height="32px" viewBox="0 0 37 32" version="1.1" xmlns="http://www.w3.org/2000/svg" xmlns:xlink="http://www.w3.org/1999/xlink">
    <!-- Generator: Sketch 40.2 (33826) - http://www.bohemiancoding.com/sketch -->
    <title>Refresh</title>
    <desc>Created with Sketch.</desc>
    <defs></defs>
    <g id="Page-1" stroke="none" stroke-width="1" fill="none" fill-rule="evenodd">
        <g id="05-twitter-expand" transform="translate(-1081.000000, -549.000000)">
            <g id="Refresh" transform="translate(1074.000000, 541.000000)">
                <g id="Group-3" transform="translate(8.000000, 9.000000)">
                    <g id="Group-2" transform="translate(3.977273, 0.000000)">
                        <path d="M26.2570014,13.6062545 C25.70288,6.69898363 19.8795287,1.26511632 12.777415,1.26511632 C7.64476142,1.26511632 3.17998799,4.10315098 0.889308992,8.28433096" id="Oval-2" stroke="#FFABCD" stroke-width="3.94736842" stroke-linecap="round" transform="translate(13.573155, 7.435685) rotate(-724.000000) translate(-13.573155, -7.435685) "></path>
                        <path d="M28.3070774,4.17318955 C28.3070774,4.17318955 30.3553728,10.2718738 28.3070774,12.3047685 C26.2587819,14.3376632 20.1138955,12.3047685 20.1138955,12.3047685" id="Rectangle" stroke="#FFABCD" stroke-width="3.94736842" stroke-linecap="round" transform="translate(24.665663, 8.690733) rotate(-705.000000) translate(-24.665663, -8.690733) "></path>
                        <path d="" id="Path-4" stroke="#979797" stroke-width="0.789473684"></path>
                    </g>
                    <g id="Group-2" transform="translate(15.522727, 17.000000) rotate(-180.000000) translate(-15.522727, -17.000000) translate(0.022727, 4.000000)">
                        <path d="M26.2570014,13.6062545 C25.70288,6.69898363 19.8795287,1.26511632 12.777415,1.26511632 C7.64476142,1.26511632 3.17998799,4.10315098 0.889308992,8.28433096" id="Oval-2" stroke="#FFABCD" stroke-width="3.94736842" stroke-linecap="round" transform="translate(13.573155, 7.435685) rotate(-724.000000) translate(-13.573155, -7.435685) "></path>
                        <path d="M28.3070774,4.17318955 C28.3070774,4.17318955 30.3553728,10.2718738 28.3070774,12.3047685 C26.2587819,14.3376632 20.1138955,12.3047685 20.1138955,12.3047685" id="Rectangle" stroke="#FFABCD" stroke-width="3.94736842" stroke-linecap="round" transform="translate(24.665663, 8.690733) rotate(-705.000000) translate(-24.665663, -8.690733) "></path>
                        <path d="" id="Path-4" stroke="#979797" stroke-width="0.789473684"></path>
                    </g>
                </g>
            </g>
        </g>
    </g>
</svg>