<?xml version="1.0" encoding="UTF-8" standalone="no"?>
<svg width="25px" height="18px" viewBox="0 0 25 18" version="1.1" xmlns="http://www.w3.org/2000/svg" xmlns:xlink="http://www.w3.org/1999/xlink">
    <!-- Generator: Sketch 40.2 (33826) - http://www.bohemiancoding.com/sketch -->
    <title>Page 1</title>
    <desc>Created with Sketch.</desc>
    <defs>
        <polygon id="path-1" points="0 17.9972857 24.2524737 17.9972857 24.2524737 0 0 0"></polygon>
    </defs>
    <g id="Page-1" stroke="none" stroke-width="1" fill="none" fill-rule="evenodd">
        <g id="03-about" transform="translate(-1144.000000, -993.000000)">
            <g id="Page-1" transform="translate(1144.000000, 993.000000)">
                <mask id="mask-2" fill="white">
                    <use xlink:href="#path-1"></use>
                </mask>
                <g id="Clip-2"></g>
                <path d="M0,16.1665 C2.44445455,16.0686429 4.72006276,15.5921429 6.83992409,14.1492857 C4.66059285,13.7985714 3.04011806,12.9307857 2.21999581,10.9822143 L4.06838502,10.9822143 C1.91219882,10.067 0.589073605,8.70192857 0.397162586,6.49257143 C1.08395973,6.6405 1.70116099,6.7735 2.31836226,6.9065 C0.445220706,5.13535714 -0.0685511303,3.23792857 1.08468301,0.900142857 C3.90990573,3.71435714 7.30049446,5.35728571 11.5696306,5.60371429 C11.5696306,5.22607143 11.5680233,4.905 11.5698717,4.58392857 C11.5799173,2.78835714 12.4753413,1.427 14.2394279,0.591071429 C15.9592335,-0.223785714 17.7944429,-0.235571429 19.350867,0.802928571 C20.3521314,1.471 21.1667085,1.39342857 22.1365503,1.01007143 C22.5398206,0.850714286 22.9414836,0.688071429 23.5539433,0.658857143 C22.9571547,1.37364286 22.3604465,2.0885 21.7274133,2.84678571 C22.4807525,2.67928571 23.2434943,2.50964286 24.2524737,2.28521429 C23.5694537,2.93007143 23.1014898,3.492 22.5026117,3.90342857 C21.9013227,4.31664286 21.6951067,4.7535 21.6829716,5.42621429 C21.5780153,11.2448571 17.1187361,16.2607857 10.7782789,17.6091429 C7.00933298,18.4106429 3.37998058,17.9903571 0,16.1665" id="Fill-1" fill="#967A60" mask="url(#mask-2)"></path>
            </g>
        </g>
    </g>
</svg>