<?xml version="1.0" encoding="UTF-8" standalone="no"?>
<svg width="9px" height="19px" viewBox="0 0 9 19" version="1.1" xmlns="http://www.w3.org/2000/svg" xmlns:xlink="http://www.w3.org/1999/xlink">
    <!-- Generator: Sketch 40.2 (33826) - http://www.bohemiancoding.com/sketch -->
    <title>Page 1</title>
    <desc>Created with Sketch.</desc>
    <defs>
        <polygon id="path-1" points="4.46155399 19 -2.27373675e-13 19 -2.27373675e-13 0 4.46155399 0 8.92310797 0 8.92310797 19"></polygon>
    </defs>
    <g id="Page-1" stroke="none" stroke-width="1" fill="none" fill-rule="evenodd">
        <g id="03-about" transform="translate(-1117.000000, -992.000000)">
            <g id="Page-1" transform="translate(1117.000000, 992.000000)">
                <mask id="mask-2" fill="white">
                    <use xlink:href="#path-1"></use>
                </mask>
                <g id="Clip-2"></g>
                <path d="M8.91843903,0 C8.91502124,0.0603083067 8.90867392,0.120646965 8.9086434,0.180955272 C8.90809412,1.1568754 8.90568336,2.13279553 8.91154242,3.1086853 C8.91236635,3.24462939 8.871536,3.27865335 8.73912724,3.27728754 C8.20543361,3.27179393 7.67149584,3.27246166 7.13786324,3.28244728 C6.95626276,3.28584665 6.77347215,3.31380032 6.5944045,3.34733866 C6.25793551,3.41040895 6.01252616,3.68223642 5.99818366,4.05901917 C5.97209251,4.7458722 5.97523566,5.43378754 5.96290721,6.12121725 C5.96064903,6.24647764 6.04490359,6.22517093 6.1179588,6.22523163 C6.98729749,6.22583866 7.85666669,6.2256262 8.72600538,6.22559585 L8.92310797,6.22559585 C8.80614029,7.32932588 8.69194957,8.40731789 8.57650769,9.49678275 L5.96687428,9.49678275 C5.96687428,9.57366294 5.9669048,9.63752236 5.96687428,9.70138179 C5.96577571,12.7453882 5.96470765,15.7894249 5.96336495,18.8334313 C5.96333443,18.8889441 5.96009974,18.9444872 5.95839085,19 L2.38802345,19 C2.38921357,18.9443962 2.39141072,18.8887923 2.39144124,18.8332188 C2.39162433,15.7981965 2.39165485,12.7631741 2.39168536,9.72815176 L2.39168536,9.50136581 L0.0122338486,9.50136581 C0.00851090143,9.43498722 0.00338422004,9.38587859 0.00338422004,9.33680032 C0.00289596467,8.35547764 0.00564240112,7.37415495 -3.05159599e-06,6.39286262 C-0.000765950612,6.25719169 0.0400949207,6.22268211 0.172747802,6.22386581 C0.854199719,6.2298754 1.5357737,6.22204473 2.2171951,6.22935942 C2.36260365,6.2309377 2.39354684,6.18276997 2.39412664,6.04761502 C2.39797165,5.16769649 2.39369942,4.28723163 2.42546653,3.40816294 C2.44859763,2.76832428 2.58298992,2.14557348 2.88134447,1.56753035 C3.20881124,0.932972843 3.71797005,0.500677316 4.39426477,0.286912141 C4.76921437,0.168389776 5.16576928,0.117611821 5.55255908,0.0360878594 C5.60660285,0.0246757188 5.66037197,0.0120495208 5.71426316,0 L8.91843903,0 Z" id="Fill-1" fill="#967A60" mask="url(#mask-2)"></path>
            </g>
        </g>
    </g>
</svg>