<?xml version="1.0" encoding="UTF-8" standalone="no"?>
<svg width="432px" height="218px" viewBox="0 0 432 218" version="1.1" xmlns="http://www.w3.org/2000/svg" xmlns:xlink="http://www.w3.org/1999/xlink">
    <!-- Generator: Sketch 40.2 (33826) - http://www.bohemiancoding.com/sketch -->
    <title>Logo</title>
    <desc>Created with Sketch.</desc>
    <defs></defs>
    <g id="Page-1" stroke="none" stroke-width="1" fill="none" fill-rule="evenodd">
        <g id="01-Landing" transform="translate(-505.000000, -195.000000)">
            <g id="Logo" transform="translate(494.000000, 192.000000)">
                <path d="M94.1481529,115.913628 C94.6962305,104.630939 83.8435767,97.2770869 72.2693274,98.337382 C56.7831446,99.7578902 18.5900366,109.427398 22.668308,143.54353 C26.7453828,177.658464 59.9914327,163.445005 62.1394659,175.850218 C64.2886958,188.255431 42.2543025,177.324579 32.9190338,183.667202 C19.4947235,192.786218 19.0938371,222.619284 56.8226349,220.010431 C96.9124742,217.238825 101.634557,190.091202 99.6444853,175.22553 C97.65561,160.357464 83.3254161,148.117398 73.5713108,144.541595 C63.8172055,140.965792 59.3141141,136.151382 62.5977928,131.851562 C67.9971945,124.78253 92.9766072,139.990464 94.1481529,115.913628" id="Fill-1" fill="#FFABCD"></path>
                <path d="M88.4651391,114.025082 C89.0144133,102.742393 78.1605629,95.388541 66.5863136,96.4488361 C51.1001307,97.8693443 12.9082194,107.540049 16.9852942,141.654984 C21.062369,175.771115 54.3096155,161.557656 56.4564521,173.961672 C58.605682,186.366885 36.5724853,175.436033 27.2372166,181.778656 C13.8129064,190.897672 13.4120199,220.730738 51.1396211,218.121885 C91.2306571,215.350279 95.9515435,188.202656 93.9626681,173.336984 C91.9725961,158.468918 77.6424022,146.228852 67.888297,142.653049 C58.1341917,139.077246 53.6311003,134.262836 56.9147789,129.964213 C62.3153773,122.89518 87.2935934,138.101918 88.4651391,114.025082" id="Fill-3" fill="#FFFFFF"></path>
                <path d="M82.7827235,112.136536 C83.3308011,100.853848 72.4781474,93.4999951 60.9038981,94.5602902 C45.4177152,95.9807984 7.2246072,105.651503 11.3028787,139.766438 C15.3799535,173.882569 48.6260033,159.66911 50.7740366,172.074323 C52.9232665,184.478339 30.8900698,173.548684 21.5536044,179.89011 C8.12929418,189.009126 7.72840776,218.842192 45.4572055,216.233339 C85.5470449,213.461733 90.269128,186.31411 88.2802526,171.448438 C86.2901806,156.580372 71.9599867,144.340307 62.2058814,140.764503 C52.4517762,137.1887 47.9486848,132.37429 51.2323634,128.075667 C56.6317651,121.006634 81.6111778,136.214569 82.7827235,112.136536" id="Fill-5" fill="#0077FF"></path>
                <path d="M18.56359,151.273033 C18.0047424,151.459721 17.3800776,151.209607 17.1120222,150.666295 C9.69263158,135.613934 14.1741828,119.148246 28.5295069,108.720016 C38.7419391,101.300344 54.1970083,98.4425738 54.8491967,98.3240984 C55.5001884,98.2068197 56.1224598,98.6388361 56.2397341,99.2886557 C56.358205,99.9384754 55.9238116,100.559574 55.27641,100.679246 C55.1208421,100.70677 39.7016731,103.562148 29.9356011,110.656311 C16.5723213,120.365311 12.3815623,135.654623 19.2588587,149.608393 C19.5508476,150.20077 19.3079224,150.918803 18.7143712,151.210803 C18.6653075,151.235934 18.6138504,151.256279 18.56359,151.273033" id="Fill-7" fill="#FFFFFF"></path>
                <path d="M18.7611612,205.54973 C18.1843634,205.743598 17.5441418,205.470746 17.2904465,204.9035 C13.8332499,197.170287 15.8843524,186.871303 21.7696044,182.413516 C25.0580698,179.919549 31.696031,180.397041 38.1114105,180.855385 C42.4302139,181.165336 46.8950116,181.483664 49.2835767,180.720156 C51.0462803,180.168467 52.2465463,179.191943 52.8831778,177.800156 C54.2808953,174.744926 52.5816155,170.686844 52.564862,170.646156 C52.3051834,170.038221 52.5875989,169.334549 53.1955102,169.074861 C53.7986349,168.824746 54.5058704,169.098795 54.765549,169.707926 C54.8529064,169.912566 56.8920421,174.789205 55.0599313,178.795828 C54.1408842,180.807516 52.4356211,182.198107 50.013549,182.998713 C47.1846072,183.904631 42.6946792,183.58391 37.9414825,183.242844 C32.2441086,182.835959 25.7892388,182.380008 23.2151889,184.32109 C18.7970615,187.66832 16.1739479,196.543205 19.4755767,203.926975 C19.7460255,204.528926 19.4755767,205.237385 18.8712554,205.507844 C18.8353551,205.523402 18.7982582,205.537762 18.7611612,205.54973" id="Fill-9" fill="#FFFFFF"></path>
                <path d="M147.359902,123.123156 C148.167659,114.936385 153.243958,93.0710902 140.094883,88.3691721 C126.944612,83.6672541 109.664612,86.3371393 106.383326,119.56291 C103.104434,152.78868 103.409587,170.58273 105.958506,180.550221 C109.428866,194.119844 121.061753,204.126828 137.186961,205.278074 C159.276401,206.858943 160.37854,183.51809 169.847836,185.053484 C181.659027,186.970631 176.086107,208.144221 193.017875,212.233418 C212.396844,216.912598 228.970806,202.654861 238.063149,159.79309 C247.157886,116.930123 234.720833,105.004795 228.461022,104.387287 C222.202407,103.769779 209.682783,102.532369 204.748889,122.953221 C199.816191,143.374074 199.882008,157.481025 193.141132,156.815648 C186.400257,156.15027 191.638107,125.831336 174.593853,124.793779 C154.127105,123.549189 157.461044,153.779566 149.227914,153.452861 C140.994783,153.126156 147.359902,123.123156 147.359902,123.123156" id="Fill-11" fill="#FFABCD"></path>
                <path d="M142.569729,119.529521 C143.377485,111.342751 148.453784,89.4786525 135.303512,84.7767344 C122.154438,80.0748164 104.873241,82.7447016 101.593152,115.970472 C98.3130637,149.196243 98.6194127,166.990292 101.167136,176.956587 C104.638693,190.527407 116.271579,200.533193 132.396787,201.685636 C154.486227,203.265308 155.588366,179.924456 165.056465,181.461046 C176.868853,183.378193 171.295934,204.551784 188.227701,208.64098 C207.60667,213.320161 224.180632,199.061226 233.272975,156.199456 C242.366515,113.336489 229.929463,101.412357 223.670848,100.793652 C217.411036,100.176144 204.891413,98.9399311 199.958715,119.360784 C195.02482,139.781636 195.091834,153.888587 188.349762,153.222013 C181.608886,152.557833 186.846737,122.238898 169.802482,121.200144 C149.336931,119.955554 152.67087,150.185931 144.43774,149.860423 C136.204609,149.532521 142.569729,119.529521 142.569729,119.529521" id="Fill-13" fill="#FFFFFF"></path>
                <path d="M137.778956,115.937084 C138.586712,107.750313 143.663012,85.885018 130.513937,81.1831 C117.363665,76.481182 100.083665,79.1522639 96.8023801,112.376838 C93.5234881,145.602608 93.8286404,163.397854 96.3775601,173.364149 C99.8479202,186.934969 111.480807,196.940756 127.606014,198.092002 C149.695455,199.67287 150.797593,176.332018 160.26689,177.867411 C172.078081,179.784559 166.505161,200.958149 183.436929,205.047346 C202.815898,209.726526 219.389859,195.468789 228.483399,152.607018 C237.57694,109.744051 225.139887,97.818723 218.880075,97.2012148 C212.620264,96.5837066 200.101837,95.3474934 195.167942,115.767149 C190.234048,136.188002 190.301061,150.294952 183.558989,149.629575 C176.819311,148.964198 182.055965,118.645264 165.012906,117.607707 C144.546158,116.363116 147.880098,146.593493 139.646967,146.266789 C131.413837,145.940084 137.778956,115.937084 137.778956,115.937084" id="Fill-15" fill="#0077FF"></path>
                <path d="M355.420915,43.5178525 C356.46681,45.5056066 358.861358,48.7164098 363.918511,50.6527049 C368.97327,52.589 374.115386,47.2013607 376.316073,43.1313115 C378.51676,39.0612623 371.577237,23.943082 361.071619,29.8800164 C350.563608,35.8157541 354.559309,41.8783443 355.420915,43.5178525" id="Fill-17" fill="#F95693"></path>
                <path d="M358.423136,67.8507869 C361.651767,63.0471475 363.006404,51.2247377 353.405474,48.7056393 C350.620809,47.9768361 349.305662,46.4773443 342.851989,54.3637377 C336.399512,62.2501311 328.798227,72.7513607 338.835945,78.7864262 C348.873662,84.8202951 355.195701,72.6544262 358.423136,67.8507869" id="Fill-19" fill="#F95693"></path>
                <path d="M321.123945,31.1719967 C322.860321,32.5697672 326.310338,34.5431607 331.673839,34.279882 C337.037341,34.0166033 339.57908,27.0169803 339.968,22.4072098 C340.35692,17.7974393 328.059878,6.75768525 320.858283,16.4188164 C313.657884,26.0799475 319.691524,30.0195541 321.123945,31.1719967" id="Fill-21" fill="#F95693"></path>
                <path d="M333.490393,52.2279492 C334.521928,46.5327525 331.071911,35.1698836 321.34533,36.7304082 C318.524765,37.1827689 316.734537,36.3414738 313.99056,46.1545885 C311.246582,55.9677033 308.494227,68.6373918 320.011036,70.1189328 C331.526648,71.599277 332.457662,57.9219492 333.490393,52.2279492" id="Fill-23" fill="#F95693"></path>
                <path d="M87.3367934,36.2072016 C86.8700898,34.681382 84.2086825,23.7732672 75.8140011,26.9541525 C67.4193197,30.1350377 73.7114416,43.1410049 74.9081175,46.5265295 C76.1047934,49.9108574 85.1923501,74.4113328 89.542267,77.7394148 C93.8933806,81.0663 98.2959512,80.3554475 101.943419,76.3153164 C105.592084,72.2739885 100.499032,66.2484967 101.471929,64.211677 C102.44363,62.1748574 104.323608,61.510677 111.05132,63.7844475 C117.779032,66.0594148 122.969015,66.9749066 126.152173,61.6171852 C129.335331,56.2606607 126.708627,50.6312836 118.276849,48.3240049 C109.846267,46.0167262 109.579408,45.2651852 111.744195,39.4227918 C113.908982,33.5792016 117.633037,26.7614803 110.682743,22.6615131 C103.73245,18.5603492 97.4774249,28.3890213 96.6373584,30.8016115 C95.7984886,33.2142016 93.3907767,39.5663984 92.1414471,40.2198082 C90.8909208,40.873218 88.678267,40.5979721 87.3367934,36.2072016" id="Fill-25" fill="#F95693"></path>
                <path d="M203.403945,30.1465262 C210.297994,21.8029852 188.999557,14.3174934 181.587346,35.1320672 C175.814582,51.3392639 177.232643,74.6861 197.942316,74.9757066 C215.276166,75.2198377 212.211479,58.4238541 214.282925,58.604559 C215.595679,58.7182475 213.844942,75.1839361 230.914327,74.1607393 C245.751911,73.2727721 254.569019,63.422559 252.029673,43.5007393 C249.40297,22.8955918 227.850837,16.7982967 226.820499,24.9659197 C225.999579,31.4653131 230.815003,34.2584607 234.517518,42.4428377 C239.361662,53.1546902 229.793042,60.8184934 226.360975,50.3842803 C223.51528,41.733182 221.672399,35.4647557 214.720909,35.3714115 C203.989119,35.2278049 209.735557,53.799723 200.486449,53.1271656 C195.590848,52.7705426 192.164765,43.7484607 203.403945,30.1465262" id="Fill-27" fill="#F95693"></path>
                <path d="M146.740623,39.2749967 C145.10357,39.7297508 135.008412,38.3259967 139.708955,29.5049639 C143.369587,22.6333902 152.866407,26.3456197 153.063858,30.3917344 C153.474318,38.7939148 148.377675,38.8202426 146.740623,39.2749967 M159.977055,5.49035738 C143.594562,-0.00857704918 128.560722,6.9515541 129.029819,15.1957672 C129.232058,18.7464393 135.454772,21.7286689 141.866562,17.8225705 C149.544434,13.1457836 159.643182,17.5987836 159.160922,21.5228328 C158.4848,27.0325377 152.251315,13.8865541 133.872767,25.3116525 C123.389886,31.8278 125.406285,48.055341 136.336722,54.4817344 C152.688102,64.0949967 170.921853,56.2828 174.699758,43.1451934 C178.478861,30.0075869 176.358351,10.9892918 159.977055,5.49035738" id="Fill-29" fill="#F95693"></path>
                <path d="M100.07134,172.404977 C99.6321596,172.404977 99.2085363,172.162043 98.999118,171.741993 C92.5370681,158.783895 97.2830848,107.412239 103.220991,94.4529443 C110.909633,77.6701246 125.992536,81.0329115 126.144514,81.0676164 C126.787129,81.2196 127.185622,81.8646328 127.032448,82.5084689 C126.879273,83.1499115 126.233068,83.547223 125.59524,83.3976328 C125.044769,83.2671902 112.24632,80.4967803 105.396547,95.4498131 C99.7494338,107.774846 95.0548742,158.467961 101.141168,170.674518 C101.436747,171.265698 101.195018,171.983731 100.60386,172.279321 C100.432736,172.365485 100.250841,172.404977 100.07134,172.404977" id="Fill-31" fill="#FFFFFF"></path>
                <path d="M139.514974,151.502085 C139.035107,151.502085 138.581567,151.211282 138.398475,150.736184 C138.160337,150.121069 138.466686,149.428167 139.082974,149.188823 C140.568049,148.614397 144.651107,146.7152 145.686232,144.851905 C146.084725,144.137462 146.569378,142.361528 147.129423,140.306757 C148.48047,135.357118 150.330531,128.577692 153.920558,124.609364 C159.33432,118.624561 166.435395,120.559659 166.735761,120.64343 C167.371196,120.824134 167.739772,121.485921 167.559074,122.12138 C167.377179,122.756839 166.717811,123.12902 166.083572,122.945921 C165.81791,122.874118 160.081046,121.366249 155.695229,126.215364 C152.489334,129.758856 150.72663,136.218757 149.439007,140.936233 C148.788016,143.322495 148.316525,145.045774 147.778021,146.016315 C146.138575,148.965036 140.574032,151.17897 139.944581,151.421905 C139.803373,151.476954 139.658575,151.502085 139.514974,151.502085" id="Fill-33" fill="#FFFFFF"></path>
                <path d="M186.433046,153.423421 C185.923262,153.423421 185.450575,153.09552 185.291417,152.583323 C185.093966,151.952651 185.445788,151.28129 186.077633,151.083831 C188.043772,150.47111 190.145135,146.39029 191.697223,140.167339 C191.906642,139.329634 192.183074,138.195143 192.513356,136.846438 C194.352647,129.327438 197.77514,115.331782 200.231916,108.06529 C203.35524,98.8277984 216.163262,98.8242082 216.677833,98.8014705 C217.338398,98.8062574 217.869722,99.344782 217.866132,100.004175 C217.863739,100.663569 217.327628,101.194913 216.669456,101.194913 C216.667063,101.194913 216.663473,101.193716 216.662276,101.194913 C216.454054,101.194913 205.056913,101.266716 202.49842,108.832389 C200.075151,116.000749 196.668215,129.931782 194.837301,137.416077 C194.507018,138.768372 194.229389,139.905257 194.018775,140.746552 C192.157943,148.206913 189.725101,152.45288 186.789655,153.369569 C186.671184,153.40547 186.551517,153.423421 186.433046,153.423421" id="Fill-35" fill="#FFFFFF"></path>
                <path d="M294.589093,142.63067 C293.089658,146.125097 289.235165,148.373736 279.863996,147.473802 C279.863996,147.473802 271.925248,146.05449 273.229624,137.013261 C274.535198,127.970834 282.902356,122.663375 289.673148,127.170228 C296.442743,131.67708 296.089724,139.137441 294.589093,142.63067 M349.252051,183.103785 C344.843497,162.648228 313.710777,115.491425 307.567043,108.374523 C301.420915,101.258818 295.510533,96.440818 275.804871,102.515375 C261.407663,106.952818 242.297946,168.228539 239.330189,192.12108 C237.141469,209.742802 241.11204,221.412031 262.327907,219.066457 C280.765093,217.027244 276.576727,202.856867 276.920173,195.123654 C277.508937,181.899884 280.894334,178.701048 286.391863,177.898048 C292.971187,176.93708 309.570278,173.599425 311.702755,186.933293 C316.083785,214.314277 319.034788,213.285097 339.646334,210.410572 C349.564383,209.025966 353.659408,203.560539 349.252051,183.103785" id="Fill-37" fill="#FFABCD"></path>
                <path d="M290.08289,138.687593 C288.583455,142.18202 284.728962,144.430659 275.357793,143.529528 C275.357793,143.529528 267.419045,142.111413 268.723422,133.070184 C270.028995,124.027757 278.396153,118.719102 285.166945,123.227151 C291.936541,127.734003 291.583521,135.193167 290.08289,138.687593 M344.745848,179.160708 C340.337294,158.703954 309.204574,111.547151 303.06084,104.431446 C296.914712,97.3145443 291.00433,92.497741 271.298668,98.5711016 C256.90146,103.008544 237.791743,164.284266 234.82279,188.178003 C232.635266,205.798528 236.605837,217.467757 257.820507,215.122184 C276.25889,213.084167 272.070524,198.91379 272.41397,191.17938 C273.002735,177.956807 276.388131,174.75797 281.88566,173.95497 C288.464984,172.992807 305.062879,169.656348 307.196552,182.98902 C311.577582,210.3712 314.528585,209.34202 335.140131,206.466298 C345.056984,205.081692 349.153206,199.617462 344.745848,179.160708" id="Fill-39" fill="#FFFFFF"></path>
                <path d="M285.576567,134.744516 C284.077132,138.237746 280.222639,140.486385 270.850274,139.586451 C270.850274,139.586451 262.912722,138.168336 264.217099,129.127107 C265.522673,120.083484 273.88983,114.776025 280.660623,119.282877 C287.430218,123.790926 287.077199,131.25009 285.576567,134.744516 M340.239526,175.216434 C335.830972,154.760877 304.698252,107.604074 298.553321,100.488369 C292.40839,93.3714672 286.498008,88.5534672 266.792346,94.6280246 C252.395138,99.0654672 233.284224,160.341189 230.316468,184.23373 C228.128944,201.855451 232.099515,213.52468 253.314185,211.179107 C271.752567,209.139893 267.564202,194.970713 267.907648,187.236303 C268.496412,174.012533 271.881808,170.813697 277.378141,170.010697 C283.958661,169.04973 300.556556,165.712074 302.690229,179.045943 C307.07126,206.428123 310.022263,205.397746 330.633808,202.523221 C340.550661,201.138615 344.646883,195.674385 340.239526,175.216434" id="Fill-41" fill="#0077FF"></path>
                <path d="M235.916911,204.853238 C235.494484,204.822123 235.104368,204.567221 234.917686,204.155549 C229.861731,193.046385 232.931204,176.194156 239.940135,150.838025 C246.669044,126.50509 259.001986,103.153467 263.207105,99.0582869 C267.079548,95.2862213 277.325487,93.5402049 277.758684,93.4684016 C278.408479,93.3618934 279.02716,93.7998934 279.134861,94.4509098 C279.244955,95.103123 278.804578,95.7194344 278.15239,95.8283361 C275.398839,96.2890738 267.646772,98.0757787 264.876468,100.773189 C260.831703,104.712795 248.870927,127.524697 242.248523,151.475877 C235.556711,175.674779 232.362783,192.762762 237.09444,203.164664 C237.369675,203.766615 237.102817,204.47627 236.500889,204.747926 C236.311814,204.83409 236.111969,204.868795 235.916911,204.853238" id="Fill-43" fill="#FFFFFF"></path>
                <path d="M288.968319,127.119719 C288.98938,127.177356 289.031205,127.301877 289.087005,127.485902 C289.18256,127.80104 289.278703,128.161285 289.368709,128.559157 C289.827714,130.588196 289.945734,132.696615 289.521502,134.633611 C288.769337,138.067908 286.428208,140.455354 281.905565,141.440569 C281.365935,141.558122 281.023775,142.090874 281.141328,142.630503 C281.258881,143.170132 281.791633,143.512292 282.331262,143.394739 C287.625798,142.241375 290.557475,139.251697 291.475194,135.0615 C291.971299,132.796339 291.837651,130.408725 291.319418,128.117871 C291.145673,127.349829 290.969803,126.769817 290.846835,126.433294 C290.657284,125.914556 290.083102,125.647698 289.564364,125.837249 C289.045627,126.0268 288.778768,126.600981 288.968319,127.119719 Z" id="Stroke-45" fill="#FFFFFF"></path>
                <path d="M310.377197,200.882038 C309.963147,200.850923 309.579014,200.606792 309.386349,200.204693 C309.259501,199.940218 306.263025,193.585628 305.320044,183.958005 C304.464421,175.188431 300.410083,172.152349 300.369396,172.122431 C299.835679,171.737087 299.711224,170.990333 300.091767,170.455398 C300.4759,169.922857 301.211856,169.792415 301.75036,170.168185 C301.952598,170.310595 306.729729,173.764333 307.703823,183.725841 C308.603723,192.937005 311.516432,199.11089 311.546349,199.171923 C311.831158,199.76789 311.579856,200.482333 310.982715,200.768349 C310.78646,200.860497 310.578238,200.897595 310.377197,200.882038" id="Fill-47" fill="#FFFFFF"></path>
                <path d="M399.420893,131.026902 C398.832129,140.690426 388.154189,141.992459 383.361502,138.202443 C380.126888,135.645049 371.721436,129.703328 380.628295,119.690361 C389.271885,109.975377 400.008461,121.363377 399.420893,131.026902 M398.570057,96.2549672 C367.597691,95.4651311 353.68035,115.383361 350.893292,135.722836 C348.10743,156.061115 341.57717,223.710574 377.47984,215.410115 C410.070112,207.875557 383.48117,164.907279 393.158688,164.997033 C401.838178,165.077213 406.433414,164.082738 412.720749,163.562164 C418.528217,163.082279 441.044871,162.303213 442.826721,135.679754 C444.610965,109.056295 429.541225,97.0448033 398.570057,96.2549672" id="Fill-49" fill="#FFABCD"></path>
                <path d="M394.629522,127.433267 C394.041955,137.096792 383.364016,138.398825 378.571329,134.610005 C375.336714,132.051415 366.931262,126.109693 375.838121,116.096726 C384.481711,106.382939 395.218287,117.769743 394.629522,127.433267 M393.779883,92.6613328 C362.807517,91.8714967 348.88898,111.790923 346.103118,132.129202 C343.317257,152.468677 336.786996,220.118136 372.68847,211.817677 C405.279938,204.281923 378.690996,161.313644 388.367317,161.404595 C397.046808,161.484775 401.64324,160.4903 407.930575,159.969726 C413.736847,159.489841 436.2535,158.709579 438.036547,132.08612 C439.819594,105.462661 424.751052,93.4511689 393.779883,92.6613328" id="Fill-51" fill="#FFFFFF"></path>
                <path d="M389.839348,123.84083 C389.251781,133.504354 378.572645,134.806387 373.781155,131.01637 C370.54654,128.458977 362.141088,122.517256 371.047947,112.504289 C379.69034,102.789305 390.428113,114.177305 389.839348,123.84083 M388.988512,89.0688951 C358.017343,88.279059 344.098806,108.197289 341.312944,128.536764 C338.525886,148.875043 331.995625,216.524502 367.898296,208.225239 C400.488567,200.689485 373.900822,157.721207 383.577143,157.810961 C392.256634,157.891141 396.851869,156.896666 403.139204,156.376092 C408.946673,155.896207 431.463326,155.117141 433.246373,128.493682 C435.02942,101.870223 419.960878,89.8587311 388.988512,89.0688951" id="Fill-53" fill="#0077FF"></path>
                <path d="M346.76129,189.375323 C346.225179,189.375323 345.738132,189.012716 345.601711,188.468208 C345.478453,187.973962 342.574121,176.085733 342.574121,152.276962 C342.574121,128.610602 345.328869,118.549766 355.38693,105.473192 C360.475196,98.8589131 369.227683,94.5112246 380.701412,92.9016344 C389.270808,91.6965361 396.257002,92.4157656 396.550187,92.4468803 C397.208359,92.5174869 397.684636,93.1062738 397.614032,93.7632738 C397.544625,94.4202738 396.95945,94.8857984 396.298885,94.8283557 C396.024847,94.797241 368.698752,92.0938475 357.284858,106.933192 C347.615716,119.502356 344.967473,129.249651 344.967473,152.276962 C344.967473,175.747061 347.893345,187.77052 347.924459,187.888995 C348.08242,188.530438 347.692304,189.179061 347.052082,189.339421 C346.955151,189.363356 346.857024,189.375323 346.76129,189.375323" id="Fill-55" fill="#FFFFFF"></path>
                <path d="M383.077651,138.150026 C380.202039,138.150026 378.384288,137.076567 378.249064,136.992797 C377.684233,136.648141 377.507125,135.912157 377.851767,135.347305 C378.19641,134.783649 378.932366,134.604141 379.497197,134.949993 C379.682681,135.060092 384.323391,137.698862 390.707657,132.780338 C395.393839,129.167436 392.286072,120.154928 392.253762,120.063977 C392.033573,119.440485 392.361463,118.757157 392.984931,118.536961 C393.606006,118.323944 394.291701,118.644666 394.511889,119.269354 C394.665064,119.704961 398.212011,130.017108 392.168798,134.675944 C388.638604,137.396092 385.487756,138.150026 383.077651,138.150026" id="Fill-57" fill="#FFFFFF"></path>
                <path d="M276.338588,41.2588016 C274.628539,41.836818 263.838112,40.9368836 268.307696,31.3056705 C271.790023,23.8034246 282.081436,27.1865557 282.527796,31.4660311 C283.452827,40.355277 278.048638,40.6807852 276.338588,41.2588016 M288.405868,4.64870328 C270.708228,-0.227936066 255.166998,8.03303115 256.145879,16.7511459 C256.568306,20.5052607 263.343885,23.3055885 269.916029,18.7879656 C277.786566,13.3787852 288.758888,17.5122607 288.477669,21.701982 C288.081569,27.5862607 280.701669,14.0070639 261.87317,27.1973262 C251.134201,34.7223098 254.221624,51.8174738 266.190777,57.9961459 C284.095442,67.2384246 302.981381,57.888441 306.221979,43.7312279 C309.463774,29.5752115 306.104705,9.52534262 288.405868,4.64870328" id="Fill-59" fill="#F95693"></path>
            </g>
        </g>
    </g>
</svg>